<svg width="108" height="108" viewBox="0 0 108 108" fill="none" xmlns="http://www.w3.org/2000/svg">
<g clip-path="url(#clip0_5046_310)">
<mask id="mask0_5046_310" style="mask-type:luminance" maskUnits="userSpaceOnUse" x="0" y="0" width="108" height="108">
<path d="M108 0H0V108H108V0Z" fill="white"/>
</mask>
<g mask="url(#mask0_5046_310)">
<path d="M11.724 48.5533C10.8886 49.1634 10.1429 49.9265 9.51565 50.8134C9.00959 51.6188 8.59045 52.4937 8.26769 53.4186C8.15195 52.3942 7.96521 51.3825 7.70932 50.3933C7.44811 49.1192 7.02362 47.8984 6.4502 46.772C5.81169 45.477 4.95734 44.3443 3.93753 43.4406C3.37614 42.963 2.75062 42.5977 2.08653 42.3594C2.03907 42.6525 1.96927 43.1442 1.91344 43.7727C1.88126 44.5332 1.90087 45.2955 1.97207 46.0523C2.13958 47.775 2.45226 49.768 3.54388 51.507C5.14361 54.1676 7.0672 54.7636 8.01084 54.9785C8.02616 55.5239 7.99247 56.0696 7.91034 56.6068C9.02708 56.5026 11.241 55.9033 13.5527 53.9592C14.2241 53.3939 14.841 52.7453 15.3925 52.0248C15.8981 51.4628 16.3597 50.8492 16.7717 50.1914C17.0784 49.6997 17.351 49.1802 17.5869 48.638C17.7654 48.3233 17.9285 47.9972 18.0755 47.661C17.3029 47.4077 16.5049 47.2752 15.7024 47.267C15.062 47.2616 14.4232 47.3413 13.7984 47.5047C13.0655 47.73 12.3661 48.0835 11.724 48.5533Z" fill="url(#paint0_linear_5046_310)"/>
<path d="M14.731 38.217C13.8227 38.5311 12.9777 39.055 12.2463 39.7574C11.5863 40.363 10.9878 41.0547 10.4623 41.8188C10.6014 40.8397 10.6612 39.8475 10.641 38.8553C10.5907 37.5832 10.4279 36.3206 10.1552 35.0875C9.3707 31.7039 7.50854 30.1213 6.92504 29.75C6.54423 30.8575 6.25808 32.0061 6.07073 33.1792C5.80585 35.0331 5.93723 36.9347 6.45322 38.7153C6.8068 39.9368 7.42294 41.0322 8.24279 41.8969C8.75522 42.4458 9.33838 42.8975 9.97095 43.2354C9.89704 43.763 9.74594 44.2719 9.52425 44.7399C11.4944 45.0688 13.5042 44.7473 15.3257 43.8118C16.7259 43.2034 18.0185 42.3005 19.1394 41.1479C19.8025 40.5656 20.3983 39.8859 20.9122 39.1256C19.9885 38.4932 18.9643 38.0866 17.9017 37.9304C16.8391 37.7742 15.7603 37.8717 14.731 38.217Z" fill="url(#paint1_linear_5046_310)"/>
<path d="M19.835 29.0556C18.9125 29.1348 18.0068 29.3854 17.152 29.798C16.4117 30.1741 15.7231 30.6756 15.1084 31.2863C15.3938 30.3774 15.6334 29.4499 15.8259 28.5085C16.0888 27.3194 16.1971 26.091 16.147 24.8644C16.1066 23.4648 15.8216 22.0896 15.3094 20.823C15.0209 20.1384 14.6369 19.5144 14.1731 18.9766C13.5533 19.7711 11.5907 23.3566 11.9397 27.2482C12.2579 30.28 13.6148 31.8073 14.3127 32.4586C14.11 32.9168 13.8627 33.3463 13.5757 33.7385C15.3774 34.5874 17.3415 34.8562 19.2627 34.5168C20.0394 34.3764 20.8044 34.1585 21.5492 33.8655C22.1848 33.6521 22.8024 33.372 23.3946 33.0285C23.9195 32.7322 24.3243 32.4 24.6817 32.1525C25.039 31.905 25.307 31.7031 25.4606 31.5794C24.9145 30.972 24.3002 30.4539 23.6347 30.039C22.4753 29.2928 21.1562 28.9514 19.835 29.0556Z" fill="url(#paint2_linear_5046_310)"/>
<path d="M26.6872 21.5723C26.2277 21.4627 25.7603 21.4038 25.2913 21.3964C24.8641 21.4129 24.4386 21.4662 24.0182 21.556C23.2517 21.7293 22.503 21.9967 21.7847 22.3539C22.2734 21.6164 22.6953 20.8219 23.0438 19.9831C23.2542 19.4621 23.4406 18.9284 23.6022 18.3841C23.7989 17.8154 23.954 17.2282 24.0657 16.6289C24.6882 13.3886 23.7306 11.1351 23.3789 10.5391C22.7032 11.2263 20.0566 13.8836 19.649 17.7035C19.5087 18.6699 19.5394 19.6596 19.7391 20.6116C19.9388 21.5637 20.3034 22.458 20.8104 23.2397C20.552 23.6412 20.2366 23.9881 19.8779 24.2655C21.3826 25.5676 23.1678 26.3568 25.0344 26.545C26.743 26.8186 28.1055 26.519 29.2222 26.2813C29.9934 26.1234 30.744 25.8509 31.4557 25.4704C30.9286 24.4778 30.2342 23.6205 29.4145 22.9504C28.5948 22.2803 27.6669 21.8115 26.6872 21.5723Z" fill="url(#paint3_linear_5046_310)"/>
<path d="M34.8948 16.2416C34.1025 15.8381 33.2598 15.5852 32.3989 15.4926C32.0023 15.4405 31.6027 15.4253 31.204 15.447C30.8327 15.4926 30.4753 15.5577 30.1403 15.6359C30.3776 15.3949 30.6428 15.1083 30.9164 14.7729C31.19 14.4375 31.4999 14.1216 31.7959 13.7406C32.4654 12.8826 33.0206 11.9122 33.4431 10.8618C34.0238 9.354 34.2639 8.15885 34.2806 7.11024C34.2956 6.3951 34.2088 5.68202 34.0238 5C33.2197 5.32565 30.2855 7.31215 29.071 10.6338C28.4378 12.4141 28.4318 14.4138 29.0543 16.1993C28.7182 16.4921 28.34 16.7126 27.9375 16.8506C29.0833 18.5094 30.6047 19.7606 32.3291 20.4621C33.8116 21.0287 35.2494 21.3837 36.3326 21.3739C37.4159 21.3641 38.2618 21.2925 38.6136 21.2306C38.3912 20.4493 38.0795 19.7066 37.6867 19.0227C37.0016 17.805 36.0331 16.8403 34.8948 16.2416Z" fill="url(#paint4_linear_5046_310)"/>
<path d="M96.2504 48.5071C97.0872 49.1136 97.8347 49.8735 98.4643 50.7574C98.9732 51.5618 99.3943 52.4369 99.7179 53.3626C99.8286 52.3378 100.009 51.325 100.259 50.334C100.516 49.0518 100.938 47.8222 101.51 46.6867C102.147 45.3881 103.002 44.252 104.023 43.3455C104.583 42.8642 105.209 42.4965 105.874 42.2578C105.918 42.5509 105.991 43.0394 106.049 43.6711C106.084 44.4314 106.066 45.1937 105.996 45.9507C105.834 47.6734 105.527 49.6664 104.441 51.4087C102.847 54.079 100.926 54.6815 99.9747 54.8997C99.9613 55.4453 99.9968 55.991 100.08 56.528C98.9641 56.4303 96.7501 55.8376 94.4301 53.8999C93.7578 53.3371 93.1392 52.6918 92.5847 51.9753C92.0791 51.4146 91.6167 50.8033 91.2027 50.1484C90.8953 49.6582 90.6209 49.1411 90.3819 48.6015C90.1418 48.1749 89.9827 47.8362 89.8906 47.6246C90.6629 47.3685 91.4608 47.2327 92.2636 47.2208C92.9047 47.213 93.5445 47.2906 94.1705 47.452C94.9061 47.677 95.6076 48.0329 96.2504 48.5071Z" fill="url(#paint5_linear_5046_310)"/>
<path d="M93.2175 38.1857C94.1273 38.4947 94.9737 39.0166 95.705 39.7196C96.3679 40.3211 96.9693 41.0094 97.4974 41.7712C97.3552 40.7935 97.2925 39.8024 97.3103 38.811C97.3551 37.537 97.5142 36.272 97.7849 35.0367C98.5583 31.6303 100.415 30.0509 100.999 29.6797C101.383 30.7845 101.673 31.9309 101.864 33.1023C102.137 34.9613 102.01 36.87 101.496 38.6579C101.147 39.8807 100.534 40.9785 99.7169 41.8461C99.2062 42.3971 98.625 42.8519 97.9943 43.1943C98.0684 43.7213 98.2205 44.2293 98.4438 44.6956C96.4746 45.0318 94.4639 44.7182 92.6396 43.7903C91.2376 43.1888 89.9422 42.2926 88.8175 41.1459C88.1527 40.5675 87.5549 39.8911 87.0391 39.1334C87.9599 38.4948 88.9826 38.0814 90.0447 37.9185C91.1069 37.7556 92.1864 37.8465 93.2175 38.1857Z" fill="url(#paint6_linear_5046_310)"/>
<path d="M88.0865 29.0367C89.0094 29.1131 89.916 29.3604 90.7722 29.7694C91.5121 30.1422 92.2007 30.6404 92.8159 31.2479C92.5288 30.3402 92.2874 29.4138 92.0928 28.4733C91.8258 27.2805 91.7138 26.0478 91.7605 24.8162C91.7955 23.4166 92.0758 22.0401 92.5841 20.7716C92.8654 20.0867 93.2429 19.4615 93.7009 18.9219C94.3235 19.7132 96.2973 23.2889 95.9651 27.1837C95.658 30.2156 94.3067 31.7429 93.6088 32.3942C93.8177 32.8567 94.0705 33.2904 94.3626 33.687C92.5616 34.5474 90.5955 34.8275 88.67 34.4979C87.8923 34.3578 87.1263 34.1399 86.3807 33.8466C85.7445 33.6362 85.126 33.3594 84.5324 33.0195C84.0048 32.7231 83.6 32.3909 83.2426 32.1467C82.8853 31.9025 82.6144 31.7006 82.4609 31.5768C83.0066 30.9685 83.6197 30.4482 84.284 30.0299C85.4434 29.2799 86.7635 28.935 88.0865 29.0367Z" fill="url(#paint7_linear_5046_310)"/>
<path d="M81.2132 21.5821C81.6724 21.4686 82.1399 21.4075 82.6092 21.3997C83.0364 21.4132 83.462 21.4654 83.8822 21.556C84.6555 21.723 85.4109 21.9873 86.1353 22.3441C85.6387 21.6108 85.2083 20.8196 84.851 19.9831C84.6406 19.4632 84.4542 18.9305 84.2927 18.3874C84.0931 17.8189 83.9353 17.2317 83.8208 16.6321C83.1955 13.3886 84.1447 11.1351 84.4881 10.5391C85.1665 11.2263 87.8216 13.8706 88.2403 17.7035C88.3838 18.6679 88.357 19.6564 88.1616 20.6083C87.9662 21.5602 87.6064 22.4556 87.104 23.2397C87.3628 23.64 87.6793 23.9849 88.0393 24.2589C86.5368 25.5591 84.7548 26.3481 82.8911 26.5385C81.1825 26.8186 79.8201 26.5385 78.7034 26.291C77.9266 26.1393 77.1701 25.87 76.4531 25.4899C76.9783 24.4965 77.671 23.6378 78.4893 22.9661C79.3076 22.2943 80.2343 21.8235 81.2132 21.5821Z" fill="url(#paint8_linear_5046_310)"/>
<path d="M72.9776 16.2839C73.768 15.8785 74.6086 15.6224 75.4679 15.5251C75.8655 15.4721 76.2659 15.4557 76.6656 15.4763C77.037 15.5186 77.3943 15.5837 77.7293 15.6619C77.4892 15.4209 77.2268 15.1343 76.9504 14.8022C76.674 14.47 76.3642 14.1509 76.0683 13.7731C75.3996 12.9168 74.8444 11.9487 74.4211 10.9008C73.8376 9.39632 73.5835 8.20117 73.5835 7.1493C73.5637 6.43505 73.6457 5.72192 73.8263 5.03906C74.6416 5.36472 77.5703 7.33818 78.7931 10.6566C79.4317 12.4343 79.4437 14.434 78.8266 16.222C79.1627 16.5148 79.5409 16.7354 79.9434 16.8733C78.8021 18.5379 77.2836 19.7959 75.5602 20.5044C74.0805 21.0775 72.6426 21.4357 71.5621 21.4292C70.4817 21.4227 69.633 21.3543 69.2812 21.2957C69.5051 20.5135 69.8178 19.7698 70.211 19.0845C70.8859 17.8628 71.8456 16.8912 72.9776 16.2839Z" fill="url(#paint9_linear_5046_310)"/>
<path fill-rule="evenodd" clip-rule="evenodd" d="M24.9944 97.1675C23.8578 96.2157 22.7589 95.1936 21.7028 94.1034C14.221 86.3806 9.38624 75.762 8.09075 64.2069C7.39794 58.298 7.67459 52.2894 8.90597 46.5011C10.7549 37.7979 14.6419 29.8657 20.1325 23.5906C25.6232 17.3154 32.5014 12.9444 39.9988 10.9657C40.0655 10.9448 40.1351 10.9399 40.2034 10.9513C40.2717 10.9626 40.3374 10.99 40.3964 11.0317C40.4554 11.0735 40.5065 11.1288 40.5467 11.1942C40.5869 11.2596 40.6153 11.3339 40.6302 11.4125C40.6451 11.4911 40.6462 11.5724 40.6334 11.6515C40.6207 11.7306 40.5943 11.8059 40.5559 11.8728C40.5175 11.9397 40.4679 11.9968 40.4101 12.0407C40.3522 12.0846 40.2874 12.1144 40.2194 12.1283C32.9062 14.059 26.197 18.3229 20.8411 24.4438C15.4851 30.5647 11.6932 38.3018 9.8887 46.7909C8.68975 52.4337 8.42163 58.291 9.09861 64.0506C10.4037 75.6698 15.3736 86.3049 23.0383 93.8805C23.6746 94.5119 24.3271 95.1188 24.9944 95.7005V97.1675ZM82.9944 97.2743C84.1546 96.3036 85.2755 95.2597 86.3519 94.1449C93.8397 86.3898 98.6633 75.7313 99.9288 64.1448C100.605 58.2334 100.312 52.2256 99.0633 46.4423C97.1884 37.7456 93.278 29.828 87.7687 23.5737C82.2594 17.3193 75.3681 12.9744 67.8643 11.0241C67.7354 11 67.6035 11.0344 67.4957 11.1201C67.3878 11.2059 67.3122 11.3366 67.2844 11.4853C67.2565 11.6341 67.2785 11.7896 67.3459 11.9201C67.4132 12.0505 67.5208 12.1459 67.6466 12.1867C74.9661 14.0886 81.6882 18.3268 87.0621 24.4277C92.4359 30.5286 96.2498 38.2521 98.0778 46.7354C99.2919 52.3747 99.5762 58.2319 98.9153 63.995C97.6435 75.6201 92.7035 86.2751 85.0593 93.8803C84.3889 94.5495 83.7 95.1914 82.9944 95.8054V97.2743Z" fill="url(#paint10_linear_5046_310)"/>
<path d="M33.872 87.2422H35.61L32.123 94.9972H30.748L27.25 87.2422H29.032L31.452 92.8632L33.872 87.2422ZM36.5989 94.9972V87.2422H41.9449V88.5732H38.2709V90.3882H41.7249V91.7192H38.2709V93.6662H41.9449V94.9972H36.5989ZM50.2515 94.9972H48.3815L47.0395 92.5222C46.9295 92.3315 46.7975 92.1959 46.6435 92.1152C46.4895 92.0272 46.2951 91.9832 46.0605 91.9832H45.2135V94.9972H43.5195V87.2422H47.0835C47.9928 87.2422 48.6785 87.4439 49.1405 87.8472C49.6098 88.2432 49.8445 88.8189 49.8445 89.5742C49.8445 90.1609 49.6795 90.6522 49.3495 91.0482C49.0268 91.4442 48.5685 91.7045 47.9745 91.8292C48.3778 91.9319 48.7188 92.2215 48.9975 92.6982L50.2515 94.9972ZM46.8305 90.6852C47.3218 90.6852 47.6775 90.6009 47.8975 90.4322C48.1175 90.2562 48.2275 89.9849 48.2275 89.6182C48.2275 89.2442 48.1175 88.9729 47.8975 88.8042C47.6775 88.6355 47.3218 88.5512 46.8305 88.5512H45.1915V90.6852H46.8305ZM51.6323 94.9972V87.2422H53.3483V94.9972H51.6323ZM55.2872 94.9972V87.2422H60.5232V88.5952H56.9812V90.3772H60.3032V91.7302H56.9812V94.9972H55.2872ZM61.9821 94.9972V87.2422H63.6981V94.9972H61.9821ZM65.637 94.9972V87.2422H70.983V88.5732H67.309V90.3882H70.763V91.7192H67.309V93.6662H70.983V94.9972H65.637ZM72.5575 87.2422H75.5715C76.4149 87.2422 77.1409 87.3962 77.7495 87.7042C78.3582 88.0122 78.8239 88.4559 79.1465 89.0352C79.4692 89.6145 79.6305 90.3075 79.6305 91.1142C79.6305 91.9209 79.4692 92.6175 79.1465 93.2042C78.8312 93.7835 78.3692 94.2272 77.7605 94.5352C77.1519 94.8432 76.4222 94.9972 75.5715 94.9972H72.5575V87.2422ZM75.4505 93.6112C77.1005 93.6112 77.9255 92.7789 77.9255 91.1142C77.9255 89.4569 77.1005 88.6282 75.4505 88.6282H74.2735V93.6112H75.4505ZM34.619 106.997H32.749L31.407 104.522C31.297 104.331 31.165 104.196 31.011 104.115C30.857 104.027 30.6627 103.983 30.428 103.983H29.581V106.997H27.887V99.2422H31.451C32.3604 99.2422 33.046 99.4439 33.508 99.8472C33.9774 100.243 34.212 100.819 34.212 101.574C34.212 102.161 34.047 102.652 33.717 103.048C33.3944 103.444 32.936 103.704 32.342 103.829C32.7454 103.932 33.0864 104.221 33.365 104.698L34.619 106.997ZM31.198 102.685C31.6894 102.685 32.045 102.601 32.265 102.432C32.485 102.256 32.595 101.985 32.595 101.618C32.595 101.244 32.485 100.973 32.265 100.804C32.045 100.635 31.6894 100.551 31.198 100.551H29.559V102.685H31.198ZM35.9999 106.997V99.2422H41.3459V100.573H37.6719V102.388H41.1259V103.719H37.6719V105.666H41.3459V106.997H35.9999ZM48.6394 99.2422H50.3774L46.8904 106.997H45.5154L42.0174 99.2422H43.7994L46.2194 104.863L48.6394 99.2422ZM51.3663 106.997V99.2422H53.0823V106.997H51.3663ZM55.0212 106.997V99.2422H60.3672V100.573H56.6932V102.388H60.1472V103.719H56.6932V105.666H60.3672V106.997H55.0212ZM71.6537 99.2422H73.2817L70.5207 106.997H69.1457L67.3527 101.86L65.5377 106.997H64.1627L61.4127 99.2422H63.1507L64.9217 104.599L66.8027 99.2422H68.0017L69.8167 104.654L71.6537 99.2422ZM77.2081 107.096C76.6215 107.096 76.0568 107.019 75.5141 106.865C74.9715 106.704 74.5205 106.484 74.1611 106.205L74.7111 104.984C75.4591 105.505 76.2988 105.765 77.2301 105.765C77.7141 105.765 78.0845 105.688 78.3411 105.534C78.6051 105.373 78.7371 105.153 78.7371 104.874C78.7371 104.625 78.6161 104.43 78.3741 104.291C78.1395 104.152 77.7178 104.016 77.1091 103.884C76.4271 103.745 75.8808 103.576 75.4701 103.378C75.0668 103.18 74.7698 102.938 74.5791 102.652C74.3958 102.359 74.3041 101.999 74.3041 101.574C74.3041 101.105 74.4325 100.687 74.6891 100.32C74.9531 99.9535 75.3198 99.6675 75.7891 99.4622C76.2585 99.2495 76.8011 99.1432 77.4171 99.1432C77.9671 99.1432 78.4951 99.2239 79.0011 99.3852C79.5145 99.5465 79.9215 99.7629 80.2221 100.034L79.6721 101.255C78.9608 100.734 78.2128 100.474 77.4281 100.474C76.9808 100.474 76.6288 100.562 76.3721 100.738C76.1155 100.907 75.9871 101.141 75.9871 101.442C75.9871 101.618 76.0348 101.765 76.1301 101.882C76.2328 101.992 76.3978 102.091 76.6251 102.179C76.8598 102.267 77.1898 102.359 77.6151 102.454C78.6125 102.674 79.3275 102.956 79.7601 103.301C80.2001 103.646 80.4201 104.122 80.4201 104.731C80.4201 105.464 80.1378 106.044 79.5731 106.469C79.0085 106.887 78.2201 107.096 77.2081 107.096Z" fill="url(#paint11_linear_5046_310)"/>
<path d="M83.5 98C84.3284 98 85 97.3284 85 96.5C85 95.6716 84.3284 95 83.5 95C82.6716 95 82 95.6716 82 96.5C82 97.3284 82.6716 98 83.5 98Z" fill="url(#paint12_linear_5046_310)"/>
<path d="M24.5 98C25.3284 98 26 97.3284 26 96.5C26 95.6716 25.3284 95 24.5 95C23.6716 95 23 95.6716 23 96.5C23 97.3284 23.6716 98 24.5 98Z" fill="url(#paint13_linear_5046_310)"/>
<path d="M46.9122 3C46.4084 3 46 3.40841 46 3.9122V18.0878C46 18.5916 46.4084 19 46.9122 19H61.0877C61.5915 19 61.9999 18.5916 61.9999 18.0878V12.0947C61.9999 11.8064 61.6484 11.6651 61.4489 11.8733L58.289 15.1707C56.9388 16.5797 55.5295 17.2802 54.061 17.2724C52.6041 17.2762 51.2205 16.623 49.9102 15.3127C48.5188 13.9212 47.7857 12.4114 47.711 10.7833C47.6523 9.27989 48.2391 7.83045 49.4715 6.43494C49.6276 6.25816 49.8958 6.25582 50.0624 6.42244L52.8369 9.19695C53.0021 9.36215 53.0038 9.63084 52.8595 9.81521C52.189 10.672 52.1636 11.4103 52.7834 12.0301C53.4096 12.6562 54.1084 12.5668 54.8799 11.7616L61.9109 4.42462C61.968 4.36504 61.9999 4.28572 61.9999 4.20321V3.9122C61.9999 3.40841 61.5915 3 61.0877 3H46.9122Z" fill="url(#paint14_linear_5046_310)"/>
</g>
<path fill-rule="evenodd" clip-rule="evenodd" d="M54.6782 34.8783C55.3874 34.5587 55.8804 33.8513 55.8804 33.0299C55.8804 31.9088 54.962 31 53.8291 31C52.6962 31 51.7778 31.9088 51.7778 33.0299C51.7778 33.9969 52.461 34.8059 53.3758 35.0101C52.6258 36.9017 51.3635 39.2339 49.6604 39.3898C48.0239 39.5397 46.4482 37.6374 45.4295 36.0487C45.9604 35.6818 46.3077 35.0726 46.3077 34.3832C46.3077 33.2621 45.3893 32.3533 44.2564 32.3533C43.1235 32.3533 42.2051 33.2621 42.2051 34.3832C42.2051 35.465 43.0603 36.3491 44.1381 36.4098C43.9054 38.4603 43.2914 41.1626 41.6755 41.7921C40.1279 42.3951 38.2288 40.8758 36.9702 39.5818C37.6417 39.2483 38.1026 38.5606 38.1026 37.7664C38.1026 36.6453 37.1842 35.7365 36.0513 35.7365C34.9184 35.7365 34 36.6453 34 37.7664C34 38.8875 34.9184 39.7963 36.0513 39.7963C36.081 39.7963 36.1106 39.7957 36.14 39.7945L39.0717 49.5996C39.0717 49.5996 48.2448 47.7213 54.1736 47.7979C60.1178 47.8746 69.2755 50 69.2755 50L71.9298 39.7962C71.9361 39.7963 71.9424 39.7963 71.9487 39.7963C73.0816 39.7963 74 38.8875 74 37.7664C74 36.6453 73.0816 35.7365 71.9487 35.7365C70.8158 35.7365 69.8974 36.6453 69.8974 37.7664C69.8974 38.5388 70.3334 39.2104 70.9751 39.5535C69.4844 41.0217 67.1325 42.8457 65.4566 41.7921C64.1194 40.9515 63.6919 38.5802 63.5682 36.7448C64.6233 36.661 65.4531 35.7871 65.4531 34.7215C65.4531 33.6004 64.5347 32.6916 63.4018 32.6916C62.2689 32.6916 61.3505 33.6004 61.3505 34.7215C61.3505 35.4197 61.7068 36.0356 62.2492 36.4009C61.0826 37.9868 59.3027 39.8574 57.6453 39.3898C56.1181 38.959 55.1866 36.6817 54.6782 34.8783Z" fill="url(#paint15_linear_5046_310)"/>
<path d="M33.6506 61.3033V78.7578H30.4886V64.38H30.3864L26.304 66.9879V64.0902L30.642 61.3033H33.6506ZM38.0824 78.7578V76.4737L44.142 70.5334C44.7216 69.9482 45.2045 69.4283 45.5909 68.9737C45.9773 68.5192 46.267 68.0788 46.4602 67.6527C46.6534 67.2266 46.75 66.772 46.75 66.2891C46.75 65.7379 46.625 65.2663 46.375 64.8743C46.125 64.4766 45.7812 64.1697 45.3438 63.9538C44.9062 63.7379 44.4091 63.63 43.8523 63.63C43.2784 63.63 42.7756 63.7493 42.3438 63.9879C41.9119 64.2209 41.5767 64.5533 41.3381 64.9851C41.1051 65.4169 40.9886 65.9311 40.9886 66.5277H37.9801C37.9801 65.4197 38.233 64.4567 38.7386 63.6385C39.2443 62.8203 39.9403 62.1868 40.8267 61.7379C41.7188 61.2891 42.7415 61.0646 43.8949 61.0646C45.0653 61.0646 46.0938 61.2834 46.9801 61.7209C47.8665 62.1584 48.554 62.7578 49.0426 63.5192C49.5369 64.2805 49.7841 65.1499 49.7841 66.1271C49.7841 66.7805 49.6591 67.4226 49.4091 68.0533C49.1591 68.6839 48.7188 69.3828 48.0881 70.1499C47.4631 70.9169 46.5852 71.8459 45.4545 72.9368L42.446 75.9964V76.1158H50.0483V78.7578H38.0824ZM59.0568 78.9964C57.9205 78.9964 56.9034 78.7834 56.0057 78.3572C55.108 77.9254 54.3949 77.3345 53.8665 76.5845C53.3438 75.8345 53.0653 74.9766 53.0312 74.0107H56.0994C56.1563 74.7266 56.4659 75.3118 57.0284 75.7663C57.5909 76.2152 58.267 76.4396 59.0568 76.4396C59.6761 76.4396 60.2273 76.2976 60.7102 76.0135C61.1932 75.7294 61.5739 75.3345 61.8523 74.8288C62.1307 74.3232 62.267 73.7464 62.2614 73.0987C62.267 72.4396 62.1278 71.8544 61.8438 71.343C61.5597 70.8317 61.1705 70.4311 60.6761 70.1413C60.1818 69.8459 59.6136 69.6982 58.9716 69.6982C58.4489 69.6925 57.9347 69.7891 57.429 69.9879C56.9233 70.1868 56.5227 70.4482 56.2273 70.772L53.3722 70.3033L54.2841 61.3033H64.4091V63.9453H56.9006L56.3977 68.5732H56.5C56.8239 68.1925 57.2813 67.8771 57.8722 67.6271C58.4631 67.3714 59.1108 67.2436 59.8153 67.2436C60.8722 67.2436 61.8153 67.4936 62.6449 67.9936C63.4744 68.4879 64.1278 69.1697 64.6051 70.0391C65.0824 70.9084 65.321 71.9027 65.321 73.022C65.321 74.1754 65.054 75.2038 64.5199 76.1072C63.9915 77.005 63.2557 77.7124 62.3125 78.2294C61.375 78.7408 60.2898 78.9964 59.0568 78.9964ZM67.8608 75.5192V73.005L75.267 61.3033H77.3636V64.8828H76.0852L71.0994 72.7834V72.9197H81.4375V75.5192H67.8608ZM76.1875 78.7578V74.7521L76.2216 73.6271V61.3033H79.2045V78.7578H76.1875Z" fill="#4280C8"/>
</g>
<defs>
<linearGradient id="paint0_linear_5046_310" x1="9.98695" y1="42.3594" x2="9.98695" y2="56.6068" gradientUnits="userSpaceOnUse">
<stop stop-color="#316BAC"/>
<stop offset="1" stop-color="#4C8EDA"/>
</linearGradient>
<linearGradient id="paint1_linear_5046_310" x1="13.4248" y1="29.75" x2="13.4248" y2="44.8652" gradientUnits="userSpaceOnUse">
<stop stop-color="#316BAC"/>
<stop offset="1" stop-color="#4C8EDA"/>
</linearGradient>
<linearGradient id="paint2_linear_5046_310" x1="18.6795" y1="18.9766" x2="18.6795" y2="34.6595" gradientUnits="userSpaceOnUse">
<stop stop-color="#316BAC"/>
<stop offset="1" stop-color="#4C8EDA"/>
</linearGradient>
<linearGradient id="paint3_linear_5046_310" x1="25.5091" y1="10.5391" x2="25.5091" y2="26.654" gradientUnits="userSpaceOnUse">
<stop stop-color="#316BAC"/>
<stop offset="1" stop-color="#4C8EDA"/>
</linearGradient>
<linearGradient id="paint4_linear_5046_310" x1="33.2755" y1="5" x2="33.2755" y2="21.3741" gradientUnits="userSpaceOnUse">
<stop stop-color="#316BAC"/>
<stop offset="1" stop-color="#4C8EDA"/>
</linearGradient>
<linearGradient id="paint5_linear_5046_310" x1="97.9787" y1="42.2578" x2="97.9787" y2="56.528" gradientUnits="userSpaceOnUse">
<stop stop-color="#316BAC"/>
<stop offset="1" stop-color="#4C8EDA"/>
</linearGradient>
<linearGradient id="paint6_linear_5046_310" x1="94.5214" y1="29.6797" x2="94.5214" y2="44.8267" gradientUnits="userSpaceOnUse">
<stop stop-color="#316BAC"/>
<stop offset="1" stop-color="#4C8EDA"/>
</linearGradient>
<linearGradient id="paint7_linear_5046_310" x1="89.2317" y1="18.9219" x2="89.2317" y2="34.6321" gradientUnits="userSpaceOnUse">
<stop stop-color="#316BAC"/>
<stop offset="1" stop-color="#4C8EDA"/>
</linearGradient>
<linearGradient id="paint8_linear_5046_310" x1="82.3921" y1="10.5391" x2="82.3921" y2="26.6554" gradientUnits="userSpaceOnUse">
<stop stop-color="#316BAC"/>
<stop offset="1" stop-color="#4C8EDA"/>
</linearGradient>
<linearGradient id="paint9_linear_5046_310" x1="74.6123" y1="5.03906" x2="74.6123" y2="21.4293" gradientUnits="userSpaceOnUse">
<stop stop-color="#316BAC"/>
<stop offset="1" stop-color="#4C8EDA"/>
</linearGradient>
<linearGradient id="paint10_linear_5046_310" x1="54.0011" y1="10.9453" x2="54.0011" y2="97.2743" gradientUnits="userSpaceOnUse">
<stop stop-color="#316BAC"/>
<stop offset="1" stop-color="#4C8EDA"/>
</linearGradient>
<linearGradient id="paint11_linear_5046_310" x1="54.0016" y1="84.9972" x2="54.0016" y2="107.997" gradientUnits="userSpaceOnUse">
<stop stop-color="#316BAC"/>
<stop offset="1" stop-color="#4C8EDA"/>
</linearGradient>
<linearGradient id="paint12_linear_5046_310" x1="83.5" y1="95" x2="83.5" y2="98" gradientUnits="userSpaceOnUse">
<stop stop-color="#316BAC"/>
<stop offset="1" stop-color="#4C8EDA"/>
</linearGradient>
<linearGradient id="paint13_linear_5046_310" x1="24.5" y1="95" x2="24.5" y2="98" gradientUnits="userSpaceOnUse">
<stop stop-color="#316BAC"/>
<stop offset="1" stop-color="#4C8EDA"/>
</linearGradient>
<linearGradient id="paint14_linear_5046_310" x1="53.9999" y1="3" x2="53.9999" y2="19" gradientUnits="userSpaceOnUse">
<stop stop-color="#316BAC"/>
<stop offset="1" stop-color="#4C8EDA"/>
</linearGradient>
<linearGradient id="paint15_linear_5046_310" x1="54" y1="31" x2="54" y2="50" gradientUnits="userSpaceOnUse">
<stop stop-color="#316BAC"/>
<stop offset="1" stop-color="#4C8EDA"/>
</linearGradient>
<clipPath id="clip0_5046_310">
<rect width="108" height="108" fill="white"/>
</clipPath>
</defs>
</svg>
