<svg width="20" height="20" viewBox="0 0 20 20" fill="none" xmlns="http://www.w3.org/2000/svg">
<g clip-path="url(#clip0_4978_2)">
<path d="M1.14026 0C0.510511 0 0 0.510511 0 1.14026V18.8599C0 19.4896 0.510511 20.0001 1.14026 20.0001H18.8597C19.4895 20.0001 20 19.4896 20 18.8599V11.3685C20 11.008 19.5606 10.8315 19.3112 11.0918L15.3614 15.2135C13.6736 16.9747 11.912 17.8504 10.0763 17.8407C8.25519 17.8454 6.52568 17.0288 4.8878 15.391C3.14847 13.6516 2.23211 11.7644 2.13874 9.72917C2.06539 7.84992 2.79892 6.0381 4.33936 4.29371C4.5345 4.07273 4.86976 4.0698 5.07804 4.27808L8.5462 7.74623C8.75271 7.95274 8.75486 8.28861 8.57448 8.51907C7.73628 9.59004 7.70456 10.5129 8.47933 11.2877C9.26203 12.0704 10.1356 11.9585 11.1 10.9521L19.8888 1.78078C19.9602 1.70632 20 1.60716 20 1.50403V1.14026C20 0.510511 19.4895 0 18.8597 0H1.14026Z" fill="#3EB2A2"/>
</g>
<defs>
<clipPath id="clip0_4978_2">
<rect width="20" height="20" fill="white"/>
</clipPath>
</defs>
</svg>
