<?xml version="1.0" encoding="utf-8"?>
<svg xmlns="http://www.w3.org/2000/svg" width="125" height="24" viewBox="0 0 125 24" fill="none">
<path d="M1.34464 0C0.602018 0 0 0.602018 0 1.34464V22.2404C0 22.983 0.602018 23.5851 1.34464 23.5851H22.2403C22.9829 23.5851 23.5849 22.983 23.5849 22.2404V13.4063C23.5849 12.9812 23.0668 12.773 22.7726 13.0799L18.1148 17.9405C16.1246 20.0173 14.0471 21.05 11.8825 21.0385C9.73489 21.0441 7.69537 20.0812 5.76392 18.1497C3.71282 16.0986 2.63221 13.8731 2.5221 11.4731C2.4356 9.25698 3.30062 7.1204 5.11717 5.06333C5.34729 4.80275 5.74265 4.79929 5.98826 5.0449L10.0781 9.13471C10.3216 9.37823 10.3241 9.7743 10.1114 10.0461C9.12297 11.309 9.08557 12.3973 9.99921 13.3109C10.9222 14.2339 11.9523 14.102 13.0896 12.9153L23.4538 2.09998C23.5379 2.01216 23.5849 1.89524 23.5849 1.77361V1.34464C23.5849 0.602018 22.9829 0 22.2403 0H1.34464Z" fill="#3EB2A2"/>
<path fill-rule="evenodd" clip-rule="evenodd" d="M55.7387 6.58792C55.3301 7.41802 55.1257 8.3822 55.1257 9.48048C55.1257 10.5788 55.3301 11.5493 55.7387 12.3922C56.1602 13.2223 56.7285 13.8672 57.4436 14.327C58.1588 14.7739 58.9569 14.9974 59.8381 14.9974C60.5916 14.9974 61.2493 14.8442 61.8112 14.5377C62.195 14.333 62.5189 14.0828 62.7831 13.787C62.8937 13.6631 63.133 13.7367 63.133 13.9027V14.6805C63.133 14.7709 63.2063 14.8442 63.2967 14.8442H66.2449C66.3354 14.8442 66.4086 14.7709 66.4086 14.6805V0.832403C66.4086 0.741993 66.3354 0.668701 66.2449 0.668701H63.2967C63.2063 0.668701 63.133 0.741994 63.133 0.832404V5.08945C63.133 5.25141 62.9081 5.32516 62.7974 5.207C62.5117 4.90236 62.1638 4.6475 61.7537 4.44244C61.179 4.14872 60.5405 4.00185 59.8381 4.00185C58.9569 4.00185 58.1588 4.22534 57.4436 4.67232C56.7285 5.11929 56.1602 5.75782 55.7387 6.58792ZM62.4433 7.56488C62.9031 8.0374 63.133 8.68231 63.133 9.49964C63.133 10.317 62.9031 10.9619 62.4433 11.4344C61.9964 11.9069 61.4472 12.1432 60.7959 12.1432C60.1446 12.1432 59.5891 11.9069 59.1293 11.4344C58.6824 10.9491 58.4589 10.2978 58.4589 9.48048C58.4589 8.66316 58.6824 8.02462 59.1293 7.56488C59.5891 7.09236 60.1446 6.85611 60.7959 6.85611C61.4472 6.85611 61.9964 7.09236 62.4433 7.56488Z" fill="#3EB2A2"/>
<path fill-rule="evenodd" clip-rule="evenodd" d="M71.8809 4.00187C72.6344 4.00187 73.2921 4.15512 73.854 4.46162C74.2391 4.66701 74.564 4.91542 74.8287 5.20685C74.9397 5.32904 75.1758 5.25515 75.1758 5.09008V4.31882C75.1758 4.22841 75.2491 4.15512 75.3395 4.15512H78.2877C78.3782 4.15512 78.4514 4.22841 78.4514 4.31882V14.825C78.4514 15.8084 78.2535 16.6959 77.8576 17.4877C77.4745 18.2923 76.8806 18.9308 76.0761 19.4033C75.2843 19.8759 74.2946 20.1121 73.1069 20.1121C71.5233 20.1121 70.2399 19.7354 69.2565 18.9819C68.3202 18.2766 67.766 17.3282 67.5939 16.1366C67.5799 16.0401 67.656 15.9552 67.7535 15.9552H70.6804C70.7555 15.9552 70.8201 16.0067 70.844 16.0779C70.9615 16.4283 71.1922 16.7067 71.5361 16.9131C71.9192 17.1557 72.3917 17.277 72.9537 17.277C73.6305 17.277 74.1669 17.0791 74.5628 16.6832C74.9714 16.3001 75.1758 15.6807 75.1758 14.825V13.8704C75.1758 13.7069 74.9469 13.6341 74.8378 13.7559C74.5668 14.0584 74.2388 14.319 73.854 14.5377C73.2921 14.8442 72.6344 14.9974 71.8809 14.9974C70.9997 14.9974 70.2016 14.774 69.4864 14.327C68.7713 13.8672 68.203 13.2223 67.7815 12.3922C67.3729 11.5494 67.1685 10.5788 67.1685 9.4805C67.1685 8.38222 67.3729 7.41803 67.7815 6.58794C68.203 5.75784 68.7713 5.11931 69.4864 4.67233C70.2016 4.22536 70.9997 4.00187 71.8809 4.00187ZM75.1758 9.49966C75.1758 8.68233 74.9459 8.03741 74.4861 7.5649C74.0392 7.09238 73.49 6.85612 72.8387 6.85612C72.1874 6.85612 71.6319 7.09238 71.1721 7.5649C70.7252 8.02464 70.5017 8.66318 70.5017 9.4805C70.5017 10.2978 70.7252 10.9491 71.1721 11.4344C71.6319 11.9069 72.1874 12.1432 72.8387 12.1432C73.49 12.1432 74.0392 11.9069 74.4861 11.4344C74.9459 10.9619 75.1758 10.317 75.1758 9.49966Z" fill="#3EB2A2"/>
<path fill-rule="evenodd" clip-rule="evenodd" d="M89.9412 9.32726C89.9412 9.58886 89.9272 9.85977 89.8993 10.14C89.8911 10.2227 89.8209 10.2851 89.7378 10.2851H82.6471C82.5517 10.2851 82.4761 10.3664 82.488 10.461C82.5607 11.04 82.7655 11.4922 83.1025 11.8175C83.4856 12.1624 83.9517 12.3348 84.5009 12.3348C85.2802 12.3348 85.8331 12.0213 86.1596 11.3943C86.189 11.3378 86.2466 11.3003 86.3103 11.3003H89.4815C89.5883 11.3003 89.6666 11.401 89.6358 11.5032C89.4486 12.125 89.1417 12.6895 88.7152 13.1968C88.2554 13.7587 87.6744 14.1993 86.972 14.5185C86.2696 14.8378 85.4842 14.9974 84.6158 14.9974C83.5686 14.9974 82.6363 14.774 81.819 14.327C81.0017 13.88 80.3631 13.2415 79.9034 12.4114C79.4437 11.5813 79.2138 10.6107 79.2138 9.49966C79.2138 8.38861 79.4373 7.41803 79.8842 6.58794C80.344 5.75784 80.9825 5.11931 81.7998 4.67233C82.6172 4.22536 83.5558 4.00187 84.6158 4.00187C85.6502 4.00187 86.5697 4.21897 87.3743 4.65318C88.1788 5.08738 88.8046 5.70676 89.2516 6.51132C89.7113 7.31587 89.9412 8.25452 89.9412 9.32726ZM86.4252 8.46523C86.5156 8.46523 86.5896 8.3918 86.5832 8.30162C86.549 7.81589 86.3593 7.42345 86.0142 7.12431C85.6311 6.79227 85.1522 6.62625 84.5775 6.62625C84.0283 6.62625 83.5622 6.78589 83.1791 7.10515C82.8491 7.3896 82.6307 7.78048 82.5237 8.27779C82.5027 8.37578 82.5797 8.46523 82.68 8.46523H86.4252Z" fill="#3EB2A2"/>
<path d="M54.2176 4.15505C54.3081 4.15505 54.3813 4.22834 54.3813 4.31875V14.6804C54.3813 14.7708 54.3081 14.8441 54.2176 14.8441H51.2694C51.179 14.8441 51.1057 14.7708 51.1057 14.6804V13.906C51.1057 13.746 50.8874 13.6719 50.7764 13.787C50.4925 14.0813 50.1489 14.3315 49.7456 14.5376C49.1837 14.8186 48.5579 14.9591 47.8683 14.9591C47.051 14.9591 46.3294 14.7803 45.7037 14.4227C45.0779 14.0523 44.5926 13.5224 44.2478 12.8327C43.903 12.1431 43.7306 11.3322 43.7306 10.3999V4.31875C43.7306 4.22834 43.8039 4.15505 43.8943 4.15505H46.8234C46.9138 4.15505 46.9871 4.22834 46.9871 4.31875V9.95933C46.9871 10.6745 47.1723 11.23 47.5426 11.6259C47.913 12.0218 48.411 12.2197 49.0368 12.2197C49.6753 12.2197 50.1798 12.0218 50.5501 11.6259C50.9205 11.23 51.1057 10.6745 51.1057 9.95933V4.31875C51.1057 4.22834 51.179 4.15505 51.2694 4.15505H54.2176Z" fill="#3EB2A2"/>
<path d="M42.1355 10.5532V1.56029C42.1355 1.46988 42.0622 1.39659 41.9718 1.39659H39.0235C38.9331 1.39659 38.8598 1.46988 38.8598 1.56029V10.5532C38.8598 11.0385 38.7512 11.4088 38.5341 11.6642C38.317 11.9196 38.0105 12.0474 37.6146 12.0474C37.1804 12.0474 36.8484 11.9069 36.6185 11.6259C36.4115 11.3614 36.2977 10.9882 36.2771 10.5062C36.2733 10.4158 36.2004 10.3425 36.11 10.3425H33.1809C33.0905 10.3425 33.017 10.4159 33.019 10.5063C33.0496 11.9084 33.4768 12.9968 34.3006 13.7714C35.1563 14.576 36.2929 14.9782 37.7104 14.9782C39.0641 14.9782 40.1369 14.5951 40.9286 13.8289C41.7332 13.0626 42.1355 11.9707 42.1355 10.5532Z" fill="#3EB2A2"/>
<path fill-rule="evenodd" clip-rule="evenodd" d="M124.52 9.43183C124.52 9.69344 124.507 9.96435 124.479 10.2446C124.47 10.3273 124.4 10.3896 124.317 10.3896H117.226C117.131 10.3896 117.055 10.4709 117.067 10.5655C117.14 11.1446 117.345 11.5968 117.682 11.9221C118.065 12.2669 118.531 12.4393 119.08 12.4393C119.859 12.4393 120.412 12.1259 120.739 11.4989C120.768 11.4423 120.826 11.4049 120.89 11.4049H124.061C124.168 11.4049 124.246 11.5056 124.215 11.6078C124.028 12.2296 123.721 12.7941 123.294 13.3014C122.835 13.8633 122.254 14.3038 121.551 14.6231C120.849 14.9424 120.063 15.102 119.195 15.102C118.148 15.102 117.216 14.8785 116.398 14.4316C115.581 13.9846 114.942 13.346 114.483 12.516C114.023 11.6859 113.793 10.7153 113.793 9.60423C113.793 8.49318 114.017 7.52261 114.464 6.69251C114.923 5.86242 115.562 5.22388 116.379 4.77691C117.196 4.32993 118.135 4.10645 119.195 4.10645C120.23 4.10645 121.149 4.32355 121.954 4.75775C122.758 5.19196 123.384 5.81133 123.831 6.61589C124.291 7.42044 124.52 8.35909 124.52 9.43183ZM121.004 8.56981C121.095 8.56981 121.169 8.49638 121.163 8.40619C121.128 7.92046 120.939 7.52803 120.593 7.22888C120.21 6.89684 119.731 6.73082 119.157 6.73082C118.608 6.73082 118.142 6.89046 117.758 7.20973C117.428 7.49417 117.21 7.88505 117.103 8.38237C117.082 8.48035 117.159 8.56981 117.259 8.56981H121.004Z" fill="#0E415F"/>
<path d="M108.764 4.14469C110.092 4.14469 111.145 4.54697 111.924 5.35152C112.716 6.15607 113.112 7.27351 113.112 8.70383V14.785C113.112 14.8754 113.039 14.9487 112.948 14.9487H110.019C109.929 14.9487 109.855 14.8754 109.855 14.785V9.14442C109.855 8.4548 109.67 7.92482 109.3 7.55447C108.942 7.17135 108.444 6.97979 107.806 6.97979C107.167 6.97979 106.663 7.17135 106.292 7.55447C105.935 7.92482 105.756 8.4548 105.756 9.14442V14.785C105.756 14.8754 105.683 14.9487 105.592 14.9487H102.663C102.573 14.9487 102.499 14.8754 102.499 14.785V9.14442C102.499 8.4548 102.314 7.92482 101.944 7.55447C101.586 7.17135 101.088 6.97979 100.45 6.97979C99.8113 6.97979 99.3068 7.17135 98.9365 7.55447C98.5789 7.92482 98.4001 8.4548 98.4001 9.14442V14.785C98.4001 14.8754 98.3268 14.9487 98.2364 14.9487H95.2881C95.1977 14.9487 95.1244 14.8754 95.1244 14.785V4.42333C95.1244 4.33292 95.1977 4.25963 95.2881 4.25963H98.2364C98.3268 4.25963 98.4001 4.33292 98.4001 4.42333V5.10566C98.4001 5.26336 98.6119 5.33792 98.7238 5.22682C98.9997 4.95296 99.326 4.72634 99.7027 4.54697C100.239 4.27878 100.846 4.14469 101.523 4.14469C102.327 4.14469 103.042 4.31709 103.668 4.6619C104.226 4.96306 104.676 5.37625 105.02 5.90148C105.088 6.00539 105.244 6.00947 105.317 5.90903C105.669 5.42441 106.122 5.02147 106.676 4.70021C107.314 4.32986 108.01 4.14469 108.764 4.14469Z" fill="#0E415F"/>
<path d="M90.79 14.604C91.1604 14.936 91.6329 15.102 92.2076 15.102C92.7695 15.102 93.2292 14.936 93.5868 14.604C93.9572 14.2591 94.1423 13.8377 94.1423 13.3397C94.1423 12.8288 93.9572 12.401 93.5868 12.0562C93.2292 11.7114 92.7695 11.539 92.2076 11.539C91.6329 11.539 91.1604 11.7114 90.79 12.0562C90.4325 12.401 90.2537 12.8288 90.2537 13.3397C90.2537 13.8377 90.4325 14.2591 90.79 14.604Z" fill="#0E415F"/>
<path d="M123.473 18.9427C123.448 18.7138 123.345 18.5356 123.163 18.408C122.983 18.2805 122.749 18.2167 122.461 18.2167C122.258 18.2167 122.084 18.2473 121.939 18.3084C121.794 18.3696 121.683 18.4526 121.606 18.5574C121.529 18.6623 121.49 18.782 121.488 18.9165C121.488 19.0284 121.514 19.1253 121.564 19.2075C121.617 19.2896 121.688 19.3595 121.777 19.4172C121.866 19.4731 121.965 19.5203 122.073 19.5587C122.181 19.5971 122.29 19.6295 122.4 19.6557L122.904 19.7815C123.106 19.8287 123.301 19.8925 123.488 19.9728C123.677 20.0532 123.846 20.1546 123.994 20.2769C124.144 20.3992 124.263 20.5469 124.351 20.7199C124.438 20.8928 124.482 21.0955 124.482 21.3279C124.482 21.6425 124.401 21.9194 124.24 22.1588C124.08 22.3965 123.847 22.5826 123.543 22.7171C123.241 22.8499 122.875 22.9163 122.445 22.9163C122.027 22.9163 121.665 22.8517 121.357 22.7224C121.051 22.5931 120.812 22.4043 120.639 22.1562C120.468 21.9081 120.375 21.6058 120.361 21.2493H121.318C121.332 21.4363 121.39 21.5918 121.491 21.7159C121.592 21.8399 121.724 21.9325 121.887 21.9937C122.051 22.0549 122.234 22.0854 122.437 22.0854C122.649 22.0854 122.834 22.054 122.993 21.9911C123.154 21.9264 123.279 21.8373 123.37 21.7237C123.461 21.6084 123.507 21.4739 123.509 21.3201C123.507 21.1803 123.466 21.065 123.386 20.9741C123.306 20.8815 123.193 20.8046 123.048 20.7434C122.905 20.6805 122.737 20.6246 122.545 20.5757L121.934 20.4184C121.492 20.3048 121.142 20.1327 120.885 19.9021C120.63 19.6697 120.503 19.3612 120.503 18.9768C120.503 18.6605 120.588 18.3836 120.76 18.1459C120.933 17.9083 121.168 17.7239 121.465 17.5929C121.762 17.4601 122.098 17.3937 122.474 17.3937C122.855 17.3937 123.189 17.4601 123.475 17.5929C123.763 17.7239 123.99 17.9065 124.154 18.1407C124.318 18.3731 124.403 18.6404 124.408 18.9427H123.473Z" fill="#0E415F"/>
<path d="M113.992 22.835L112.477 17.467H113.523L114.49 21.4118H114.54L115.573 17.467H116.524L117.56 21.4144H117.607L118.574 17.467H119.62L118.105 22.835H117.146L116.071 19.0685H116.029L114.952 22.835H113.992Z" fill="#0E415F"/>
<path d="M108.084 17.467V22.835H111.596V22.0199H109.056V20.5547H111.394V19.7395H109.056V18.2822H111.575V17.467H108.084Z" fill="#0E415F"/>
<path d="M106.739 17.467V22.835H105.766V17.467H106.739Z" fill="#0E415F"/>
<path d="M102.244 21.6922L100.847 17.467H99.7798L101.67 22.835H102.87L104.762 17.467H103.693L102.299 21.6922H102.244Z" fill="#0E415F"/>
<path d="M95.3495 22.835V17.467H98.8408V18.2822H96.3219V19.7395H98.6599V20.5547H96.3219V22.0199H98.8617V22.835H95.3495Z" fill="#0E415F"/>
<path fill-rule="evenodd" clip-rule="evenodd" d="M90.2537 17.467V22.835H91.2261V20.8692H92.2156L93.2705 22.835H94.3557L93.1946 20.7099C93.2296 20.6958 93.2636 20.6807 93.2968 20.6648C93.5798 20.5267 93.7939 20.3319 93.9389 20.0803C94.0857 19.8269 94.1591 19.5281 94.1591 19.1838C94.1591 18.8413 94.0866 18.5417 93.9415 18.2848C93.7983 18.0262 93.586 17.8252 93.3046 17.6819C93.025 17.5387 92.6791 17.467 92.2667 17.467H90.2537ZM91.2261 20.0619V18.2796H92.1173C92.3602 18.2796 92.5585 18.3154 92.7123 18.387C92.866 18.4569 92.9805 18.56 93.0556 18.6963C93.1308 18.8309 93.1683 18.9934 93.1683 19.1838C93.1683 19.3743 93.1308 19.5351 93.0556 19.6661C92.9822 19.7954 92.8686 19.8942 92.7149 19.9623C92.5611 20.0287 92.3636 20.0619 92.1225 20.0619H91.2261Z" fill="#0E415F"/>
</svg>