<svg width="108" height="108" viewBox="0 0 108 108" fill="none" xmlns="http://www.w3.org/2000/svg">
<g clip-path="url(#clip0_5046_332)">
<mask id="mask0_5046_332" style="mask-type:luminance" maskUnits="userSpaceOnUse" x="0" y="0" width="108" height="108">
<path d="M108 0H0V108H108V0Z" fill="white"/>
</mask>
<g mask="url(#mask0_5046_332)">
<path d="M35.5513 72.9531H37.1312L33.9613 80.0031H32.7113L29.5312 72.9531H31.1512L33.3512 78.0631L35.5513 72.9531ZM38.0667 80.0031V72.9531H42.9267V74.1631H39.5867V75.8131H42.7267V77.0231H39.5867V78.7931H42.9267V80.0031H38.0667ZM50.5144 80.0031H48.8144L47.5943 77.7531C47.4943 77.5798 47.3743 77.4564 47.2343 77.3831C47.0943 77.3031 46.9177 77.2631 46.7043 77.2631H45.9343V80.0031H44.3943V72.9531H47.6343C48.461 72.9531 49.0843 73.1364 49.5043 73.5031C49.931 73.8631 50.1443 74.3864 50.1443 75.0731C50.1443 75.6064 49.9944 76.0531 49.6944 76.4131C49.4011 76.7731 48.9844 77.0098 48.4444 77.1231C48.8111 77.2164 49.121 77.4798 49.3743 77.9131L50.5144 80.0031ZM47.4044 76.0831C47.8511 76.0831 48.1743 76.0064 48.3743 75.8531C48.5743 75.6931 48.6744 75.4464 48.6744 75.1131C48.6744 74.7731 48.5743 74.5264 48.3743 74.3731C48.1743 74.2198 47.8511 74.1431 47.4044 74.1431H45.9143V76.0831H47.4044ZM51.8061 80.0031V72.9531H53.3661V80.0031H51.8061ZM55.1651 80.0031V72.9531H59.9251V74.1831H56.7052V75.8031H59.7252V77.0331H56.7052V80.0031H55.1651ZM61.2878 80.0031V72.9531H62.8477V80.0031H61.2878ZM64.6467 80.0031V72.9531H69.5067V74.1631H66.1668V75.8131H69.3068V77.0231H66.1668V78.7931H69.5067V80.0031H64.6467ZM70.9745 72.9531H73.7145C74.4812 72.9531 75.1411 73.0931 75.6944 73.3731C76.2478 73.6531 76.6712 74.0564 76.9645 74.5831C77.2579 75.1098 77.4044 75.7398 77.4044 76.4731C77.4044 77.2064 77.2579 77.8398 76.9645 78.3731C76.6779 78.8998 76.2578 79.3031 75.7044 79.5831C75.1511 79.8631 74.4879 80.0031 73.7145 80.0031H70.9745V72.9531ZM73.6045 78.7431C75.1045 78.7431 75.8545 77.9864 75.8545 76.4731C75.8545 74.9664 75.1045 74.2131 73.6045 74.2131H72.5345V78.7431H73.6045ZM36.2668 91.0031H34.5667L33.3467 88.7531C33.2467 88.5798 33.1267 88.4564 32.9867 88.3831C32.8467 88.3031 32.67 88.2631 32.4567 88.2631H31.6867V91.0031H30.1467V83.9531H33.3867C34.2134 83.9531 34.8367 84.1364 35.2567 84.5031C35.6834 84.8631 35.8967 85.3864 35.8967 86.0731C35.8967 86.6064 35.7468 87.0531 35.4468 87.4131C35.1535 87.7731 34.7368 88.0098 34.1968 88.1231C34.5635 88.2164 34.8735 88.4798 35.1268 88.9131L36.2668 91.0031ZM33.1567 87.0831C33.6034 87.0831 33.9268 87.0064 34.1268 86.8531C34.3268 86.6931 34.4268 86.4464 34.4268 86.1131C34.4268 85.7731 34.3268 85.5264 34.1268 85.3731C33.9268 85.2198 33.6034 85.1431 33.1567 85.1431H31.6667V87.0831H33.1567ZM37.5584 91.0031V83.9531H42.4184V85.1631H39.0784V86.8131H42.2184V88.0231H39.0784V89.7931H42.4184V91.0031H37.5584ZM49.0853 83.9531H50.6652L47.4953 91.0031H46.2453L43.0653 83.9531H44.6852L46.8853 89.0631L49.0853 83.9531ZM51.6007 91.0031V83.9531H53.1606V91.0031H51.6007ZM54.9596 91.0031V83.9531H59.8196V85.1631H56.4796V86.8131H59.6196V88.0231H56.4796V89.7931H59.8196V91.0031H54.9596ZM70.1165 83.9531H71.5964L69.0865 91.0031H67.8365L66.2064 86.3331L64.5564 91.0031H63.3064L60.8064 83.9531H62.3864L63.9964 88.8231L65.7064 83.9531H66.7965L68.4465 88.8731L70.1165 83.9531ZM75.2023 91.0931C74.669 91.0931 74.1557 91.0231 73.6623 90.8831C73.169 90.7364 72.7589 90.5364 72.4322 90.2831L72.9322 89.1731C73.6122 89.6464 74.3756 89.8831 75.2222 89.8831C75.6622 89.8831 75.999 89.8131 76.2323 89.6731C76.4723 89.5264 76.5923 89.3264 76.5923 89.0731C76.5923 88.8464 76.4822 88.6698 76.2622 88.5431C76.0489 88.4164 75.6656 88.2931 75.1122 88.1731C74.4922 88.0464 73.9956 87.8931 73.6222 87.7131C73.2556 87.5331 72.9857 87.3131 72.8123 87.0531C72.6457 86.7864 72.5623 86.4598 72.5623 86.0731C72.5623 85.6464 72.679 85.2664 72.9123 84.9331C73.1523 84.5998 73.4857 84.3398 73.9123 84.1531C74.339 83.9598 74.8322 83.8631 75.3922 83.8631C75.8922 83.8631 76.3722 83.9364 76.8322 84.0831C77.2989 84.2298 77.6689 84.4264 77.9422 84.6731L77.4422 85.7831C76.7956 85.3098 76.1156 85.0731 75.4022 85.0731C74.9956 85.0731 74.6756 85.1531 74.4422 85.3131C74.2089 85.4664 74.0923 85.6798 74.0923 85.9531C74.0923 86.1131 74.1356 86.2464 74.2222 86.3531C74.3156 86.4531 74.4657 86.5431 74.6723 86.6231C74.8857 86.7031 75.1856 86.7864 75.5722 86.8731C76.4789 87.0731 77.129 87.3298 77.5223 87.6431C77.9223 87.9564 78.1222 88.3898 78.1222 88.9431C78.1222 89.6098 77.8657 90.1364 77.3523 90.5231C76.839 90.9031 76.1223 91.0931 75.2023 91.0931Z" fill="url(#paint0_linear_5046_332)"/>
<path d="M34.8481 24.9494H36.0581V31.9994H34.6881V27.8194L33.0681 30.8394H32.0681L30.4481 27.8594V31.9994H29.0781V24.9494H30.3081L32.5781 29.2594L34.8481 24.9494ZM41.1161 32.0894C40.4161 32.0894 39.8061 31.9427 39.2861 31.6494C38.7728 31.3494 38.3761 30.9294 38.0961 30.3894C37.8161 29.8427 37.6761 29.2027 37.6761 28.4694C37.6761 27.7361 37.8161 27.0994 38.0961 26.5594C38.3761 26.0127 38.7728 25.5927 39.2861 25.2994C39.8061 25.0061 40.4161 24.8594 41.1161 24.8594C41.8161 24.8594 42.4228 25.0061 42.9361 25.2994C43.4561 25.5927 43.8561 26.0127 44.1361 26.5594C44.4161 27.0994 44.5561 27.7361 44.5561 28.4694C44.5561 29.2027 44.4161 29.8427 44.1361 30.3894C43.8561 30.9294 43.4561 31.3494 42.9361 31.6494C42.4228 31.9427 41.8161 32.0894 41.1161 32.0894ZM41.1161 30.8794C41.7028 30.8794 42.1628 30.6727 42.4961 30.2594C42.8361 29.8461 43.0061 29.2494 43.0061 28.4694C43.0061 27.6894 42.8394 27.0961 42.5061 26.6894C42.1728 26.2761 41.7094 26.0694 41.1161 26.0694C40.5228 26.0694 40.0594 26.2761 39.7261 26.6894C39.3994 27.0961 39.2361 27.6894 39.2361 28.4694C39.2361 29.2494 39.4028 29.8461 39.7361 30.2594C40.0694 30.6727 40.5294 30.8794 41.1161 30.8794ZM50.8072 24.9494H52.2672V31.9994H51.1072L47.5972 27.5094V31.9994H46.1472V24.9494H47.2972L50.8072 29.4194V24.9494ZM55.6967 31.9994V26.2194H53.4867V24.9494H59.4667V26.2194H57.2567V31.9994H55.6967ZM65.4674 24.9494H66.9974V31.9994H65.4674V29.0394H62.2174V31.9994H60.6874V24.9494H62.2174V27.7994H65.4674V24.9494ZM68.8023 31.9994V24.9494H70.3623V30.7294H73.5123V31.9994H68.8023ZM79.767 24.9494L76.847 28.8094V31.9994H75.287V28.8094L72.377 24.9494H74.147L76.057 27.5594L77.997 24.9494H79.767ZM38.7813 42.9994H37.0813L35.8613 40.7494C35.7613 40.5761 35.6413 40.4527 35.5013 40.3794C35.3613 40.2994 35.1846 40.2594 34.9713 40.2594H34.2013V42.9994H32.6613V35.9494H35.9013C36.7279 35.9494 37.3513 36.1327 37.7713 36.4994C38.1979 36.8594 38.4113 37.3827 38.4113 38.0694C38.4113 38.6027 38.2613 39.0494 37.9613 39.4094C37.6679 39.7694 37.2513 40.0061 36.7113 40.1194C37.0779 40.2127 37.3879 40.4761 37.6413 40.9094L38.7813 42.9994ZM35.6713 39.0794C36.1179 39.0794 36.4413 39.0027 36.6413 38.8494C36.8413 38.6894 36.9413 38.4427 36.9413 38.1094C36.9413 37.7694 36.8413 37.5227 36.6413 37.3694C36.4413 37.2161 36.1179 37.1394 35.6713 37.1394H34.1813V39.0794H35.6713ZM40.073 42.9994V35.9494H44.933V37.1594H41.593V38.8094H44.733V40.0194H41.593V41.7894H44.933V42.9994H40.073ZM49.7107 43.0894C48.9974 43.0894 48.374 42.9394 47.8407 42.6394C47.314 42.3394 46.9074 41.9161 46.6207 41.3694C46.3407 40.8227 46.2007 40.1894 46.2007 39.4694C46.2007 38.7494 46.3407 38.1161 46.6207 37.5694C46.9074 37.0227 47.314 36.6027 47.8407 36.3094C48.374 36.0094 48.9974 35.8594 49.7107 35.8594C50.1774 35.8594 50.624 35.9327 51.0507 36.0794C51.4774 36.2194 51.8274 36.4161 52.1007 36.6694L51.6007 37.7794C51.294 37.5461 50.9874 37.3761 50.6807 37.2694C50.3807 37.1627 50.0674 37.1094 49.7407 37.1094C49.114 37.1094 48.6307 37.3094 48.2907 37.7094C47.9574 38.1094 47.7907 38.6961 47.7907 39.4694C47.7907 40.2427 47.9574 40.8327 48.2907 41.2394C48.6307 41.6394 49.114 41.8394 49.7407 41.8394C50.0674 41.8394 50.3807 41.7861 50.6807 41.6794C50.9874 41.5727 51.294 41.4027 51.6007 41.1694L52.1007 42.2794C51.8274 42.5327 51.4774 42.7327 51.0507 42.8794C50.624 43.0194 50.1774 43.0894 49.7107 43.0894ZM56.6716 43.0894C55.9716 43.0894 55.3616 42.9427 54.8416 42.6494C54.3282 42.3494 53.9316 41.9294 53.6516 41.3894C53.3716 40.8427 53.2316 40.2027 53.2316 39.4694C53.2316 38.7361 53.3716 38.0994 53.6516 37.5594C53.9316 37.0127 54.3282 36.5927 54.8416 36.2994C55.3616 36.0061 55.9716 35.8594 56.6716 35.8594C57.3716 35.8594 57.9782 36.0061 58.4916 36.2994C59.0116 36.5927 59.4116 37.0127 59.6916 37.5594C59.9716 38.0994 60.1116 38.7361 60.1116 39.4694C60.1116 40.2027 59.9716 40.8427 59.6916 41.3894C59.4116 41.9294 59.0116 42.3494 58.4916 42.6494C57.9782 42.9427 57.3716 43.0894 56.6716 43.0894ZM56.6716 41.8794C57.2582 41.8794 57.7182 41.6727 58.0516 41.2594C58.3916 40.8461 58.5616 40.2494 58.5616 39.4694C58.5616 38.6894 58.3949 38.0961 58.0616 37.6894C57.7282 37.2761 57.2649 37.0694 56.6716 37.0694C56.0782 37.0694 55.6149 37.2761 55.2816 37.6894C54.9549 38.0961 54.7916 38.6894 54.7916 39.4694C54.7916 40.2494 54.9582 40.8461 55.2916 41.2594C55.6249 41.6727 56.0849 41.8794 56.6716 41.8794ZM67.8227 42.9994H66.1227L64.9027 40.7494C64.8027 40.5761 64.6827 40.4527 64.5427 40.3794C64.4027 40.2994 64.226 40.2594 64.0127 40.2594H63.2427V42.9994H61.7027V35.9494H64.9427C65.7693 35.9494 66.3927 36.1327 66.8127 36.4994C67.2393 36.8594 67.4527 37.3827 67.4527 38.0694C67.4527 38.6027 67.3027 39.0494 67.0027 39.4094C66.7093 39.7694 66.2927 40.0061 65.7527 40.1194C66.1193 40.2127 66.4293 40.4761 66.6827 40.9094L67.8227 42.9994ZM64.7127 39.0794C65.1593 39.0794 65.4827 39.0027 65.6827 38.8494C65.8827 38.6894 65.9827 38.4427 65.9827 38.1094C65.9827 37.7694 65.8827 37.5227 65.6827 37.3694C65.4827 37.2161 65.1593 37.1394 64.7127 37.1394H63.2227V39.0794H64.7127ZM69.1144 35.9494H71.8544C72.6211 35.9494 73.2811 36.0894 73.8344 36.3694C74.3877 36.6494 74.8111 37.0527 75.1044 37.5794C75.3977 38.1061 75.5444 38.7361 75.5444 39.4694C75.5444 40.2027 75.3977 40.8361 75.1044 41.3694C74.8177 41.8961 74.3977 42.2994 73.8444 42.5794C73.2911 42.8594 72.6277 42.9994 71.8544 42.9994H69.1144V35.9494ZM71.7444 41.7394C73.2444 41.7394 73.9944 40.9827 73.9944 39.4694C73.9944 37.9627 73.2444 37.2094 71.7444 37.2094H70.6744V41.7394H71.7444Z" fill="url(#paint1_linear_5046_332)"/>
<path d="M17.7204 53.7147C18.0837 53.5737 18.4263 53.9163 18.2853 54.2797L17.4005 56.5599C17.343 56.708 17.3654 56.8719 17.4595 56.9926L18.9086 58.8521C19.1395 59.1484 18.9045 59.5951 18.5211 59.5888L16.1148 59.5489C15.9585 59.5464 15.8085 59.6253 15.7185 59.7574L14.3339 61.7914C14.1132 62.1155 13.6254 62.049 13.5295 61.6817L12.927 59.3768C12.8879 59.2272 12.7728 59.1121 12.6232 59.073L10.3183 58.4705C9.95101 58.3746 9.88452 57.8868 10.2086 57.6661L12.2426 56.2815C12.3747 56.1915 12.4536 56.0415 12.4511 55.8852L12.4112 53.4789C12.4049 53.0955 12.8516 52.8605 13.1479 53.0914L15.0074 54.5405C15.1281 54.6346 15.292 54.657 15.4401 54.5995L17.7204 53.7147Z" fill="url(#paint2_linear_5046_332)"/>
<path d="M96.7204 53.7147C97.0837 53.5737 97.4263 53.9163 97.2853 54.2797L96.4005 56.5599C96.343 56.708 96.3654 56.8719 96.4595 56.9926L97.9086 58.8521C98.1395 59.1484 97.9045 59.5951 97.5211 59.5888L95.1148 59.5489C94.9585 59.5464 94.8085 59.6253 94.7185 59.7574L93.3339 61.7914C93.1132 62.1155 92.6254 62.049 92.5295 61.6817L91.927 59.3768C91.8879 59.2272 91.7728 59.1121 91.6232 59.073L89.3183 58.4705C88.951 58.3746 88.8845 57.8868 89.2086 57.6661L91.2426 56.2815C91.3747 56.1915 91.4536 56.0415 91.4511 55.8852L91.4112 53.4789C91.4049 53.0955 91.8516 52.8605 92.1479 53.0914L94.0074 54.5405C94.1281 54.6346 94.292 54.657 94.4401 54.5995L96.7204 53.7147Z" fill="url(#paint3_linear_5046_332)"/>
<path d="M94.844 75.1014C95.6228 76.7278 96.1491 78.4342 95.711 80.32C95.4021 81.5457 94.8745 82.6985 94.1564 83.7169C94.0226 83.8889 93.9354 84.0958 93.9039 84.3156C93.9039 84.6358 94.1716 84.8279 94.482 84.8471C94.8143 84.842 95.1426 84.7703 95.4494 84.6358C96.3621 84.3572 97.1744 83.9442 98.0566 83.6145C98.9389 83.2847 99.8151 82.9453 100.722 82.6348C102.416 81.9048 104.196 81.2325 106 80.5921C105.136 80.9123 103.186 83.2431 102.368 83.9538C101.04 84.9571 99.6443 85.855 98.1905 86.64C96.8605 87.2678 95.4583 87.7101 94.0195 87.9558C92.6049 88.1511 91.3423 87.7061 91.0655 86.4703C90.8708 85.6379 91.1415 84.7286 91.4671 83.8066C91.7926 82.8845 92.2824 82.0713 92.6292 81.2196C93.1403 80.0799 93.2559 78.7192 93.4689 77.5218C93.6458 76.3255 93.9196 75.1472 94.2873 74C94.4759 74.3554 94.6645 74.7236 94.844 75.1014Z" fill="url(#paint4_linear_5046_332)"/>
<path d="M100.608 66.6141C101.484 67.2134 102.252 67.9322 102.57 69.0418C102.765 69.7706 102.824 70.5293 102.745 71.2775C102.726 71.4078 102.74 71.5416 102.787 71.6649C102.88 71.8303 103.075 71.8467 103.242 71.7607C103.413 71.6553 103.563 71.5167 103.684 71.3523C104.078 70.9261 104.381 70.4615 104.744 70.0182C105.107 69.575 105.465 69.1287 105.846 68.6878C106.516 67.7866 107.247 66.8888 108 66C107.643 66.4326 107.304 68.2399 107.084 68.8602C106.685 69.7889 106.218 70.6846 105.69 71.5398C105.18 72.2755 104.579 72.9377 103.901 73.5097C103.222 74.0481 102.437 74.2087 101.935 73.6559C101.593 73.2861 101.47 72.7327 101.373 72.1557C101.275 71.5786 101.294 71.007 101.228 70.4598C101.164 69.7129 100.83 68.9742 100.594 68.2898C100.34 67.6171 100.141 66.9237 100 66.2173C100.201 66.3426 100.406 66.4744 100.608 66.6141Z" fill="url(#paint5_linear_5046_332)"/>
<path d="M7.39158 66.6141C6.51564 67.2134 5.74785 67.9322 5.42969 69.0418C5.23547 69.7706 5.17606 70.5293 5.25465 71.2775C5.27443 71.4078 5.25991 71.5416 5.21263 71.6649C5.11993 71.8303 4.92508 71.8467 4.75814 71.7607C4.58678 71.6553 4.43678 71.5167 4.31619 71.3523C3.92219 70.9261 3.61933 70.4615 3.25598 70.0182C2.89262 69.575 2.53522 69.1287 2.15365 68.6878C1.48374 67.7866 0.752831 66.8888 0 66C0.356638 66.4326 0.69597 68.2399 0.915784 68.8602C1.31545 69.7889 1.7816 70.6846 2.31036 71.5398C2.82028 72.2755 3.42142 72.9377 4.09854 73.5097C4.7777 74.0481 5.56315 74.2087 6.06494 73.6559C6.40721 73.2861 6.52966 72.7327 6.62734 72.1557C6.72501 71.5786 6.70574 71.007 6.77194 70.4598C6.83614 69.7129 7.16999 68.9742 7.40593 68.2898C7.6603 67.6171 7.85905 66.9237 8 66.2173C7.79901 66.3426 7.59431 66.4744 7.39158 66.6141Z" fill="url(#paint6_linear_5046_332)"/>
<path d="M18.1076 18.1262C17.1379 17.7725 16.1342 17.5697 15.0725 17.9354C14.3836 18.1871 13.7468 18.5608 13.196 19.0368C13.1035 19.1245 12.9889 19.1873 12.8642 19.2185C12.6805 19.2376 12.5578 19.0942 12.5322 18.9158C12.5196 18.7233 12.5454 18.5291 12.6083 18.3436C12.7255 17.7991 12.9245 17.3047 13.0725 16.7747C13.2206 16.2447 13.3744 15.7177 13.5102 15.1748C13.8499 14.1512 14.1526 13.0817 14.4357 12C14.2924 12.5188 13.046 13.7856 12.6764 14.3013C12.1627 15.1287 11.7127 15.9897 11.3302 16.8774C11.0321 17.6841 10.8438 18.5215 10.77 19.3684C10.724 20.1983 11.0383 20.9021 11.7604 20.9887C12.2472 21.0518 12.7563 20.841 13.2702 20.5978C13.784 20.3546 14.2278 20.0229 14.7003 19.7716C15.3304 19.4081 16.1058 19.2602 16.783 19.0657C17.4612 18.8922 18.1245 18.6636 18.7656 18.3827C18.5528 18.2947 18.3328 18.2075 18.1076 18.1262Z" fill="url(#paint7_linear_5046_332)"/>
<path d="M89.658 18.1262C90.6276 17.7725 91.6314 17.5697 92.693 17.9354C93.382 18.1871 94.0188 18.5608 94.5696 19.0368C94.6621 19.1245 94.7767 19.1873 94.9014 19.2185C95.0851 19.2376 95.2078 19.0942 95.2333 18.9158C95.246 18.7233 95.2202 18.5291 95.1573 18.3436C95.0401 17.7991 94.8411 17.3047 94.693 16.7747C94.545 16.2447 94.3912 15.7177 94.2554 15.1748C93.9157 14.1512 93.613 13.0817 93.3299 12C93.4732 12.5188 94.7196 13.7856 95.0892 14.3013C95.6029 15.1287 96.0529 15.9897 96.4354 16.8774C96.7335 17.6841 96.9218 18.5215 96.9956 19.3684C97.0416 20.1983 96.7272 20.9021 96.0052 20.9887C95.5184 21.0518 95.0093 20.841 94.4954 20.5978C93.9815 20.3546 93.5378 20.0229 93.0653 19.7716C92.4352 19.4081 91.6598 19.2602 90.9826 19.0657C90.3044 18.8922 89.6411 18.6636 89 18.3827C89.2127 18.2947 89.4328 18.2075 89.658 18.1262Z" fill="url(#paint8_linear_5046_332)"/>
<path d="M13.1573 75.1014C12.3784 76.7278 11.8521 78.4342 12.2902 80.32C12.6018 81.5465 13.1326 82.6994 13.8541 83.7169C13.9879 83.8889 14.0752 84.0958 14.1066 84.3156C14.1066 84.6358 13.8389 84.8279 13.5285 84.8471C13.1962 84.842 12.8678 84.7703 12.561 84.6358C11.6482 84.3572 10.8389 83.9442 9.95649 83.6145C9.07413 83.2847 8.19481 82.9453 7.29114 82.6348C5.58118 81.9048 3.80124 81.2325 2 80.5921C2.86107 80.9123 4.81444 83.2431 5.62986 83.9538C6.95708 84.9571 8.35345 85.855 9.8074 86.64C11.1386 87.2677 12.5419 87.7101 13.9819 87.9558C15.3937 88.1511 16.6564 87.7061 16.9333 86.4703C17.131 85.6379 16.8572 84.7286 16.5316 83.8066C16.2061 82.8845 15.7162 82.0713 15.3693 81.2196C14.8582 80.0799 14.7426 78.7192 14.5296 77.5218C14.3541 76.3252 14.0802 75.1468 13.7111 74C13.5225 74.3554 13.3247 74.7236 13.1573 75.1014Z" fill="url(#paint9_linear_5046_332)"/>
<path d="M14.3505 24.8745C12.5858 24.732 10.8368 24.8528 9.26342 25.934C8.24948 26.662 7.38026 27.5673 6.70223 28.6014C6.59177 28.7873 6.43302 28.9423 6.24269 29.0501C5.94935 29.1645 5.67898 28.9845 5.55201 28.7029C5.43952 28.3923 5.3895 28.0615 5.40463 27.7283C5.33815 26.7805 5.43134 25.8807 5.42252 24.9429C5.4137 24.0051 5.41475 23.0666 5.38082 22.1158C5.44701 20.2659 5.43575 18.3714 5.38764 16.4688C5.39775 17.3834 3.95064 20.0317 3.5868 21.0435C3.13531 22.6355 2.80477 24.254 2.59791 25.8857C2.49188 27.3471 2.58115 28.8094 2.86346 30.2353C3.18206 31.6171 4.0348 32.6315 5.26467 32.4471C6.09705 32.3333 6.83362 31.7538 7.5637 31.1217C8.29379 30.4896 8.86623 29.7437 9.52428 29.117C10.3884 28.2345 11.5944 27.6406 12.6164 27.0147C13.6509 26.4239 14.6341 25.7482 15.5547 24.9953C15.1626 24.947 14.7556 24.8949 14.3505 24.8745Z" fill="url(#paint10_linear_5046_332)"/>
<path d="M93.4073 24.8745C95.172 24.732 96.921 24.8528 98.4944 25.934C99.5083 26.662 100.378 27.5673 101.056 28.6014C101.167 28.7873 101.325 28.9423 101.516 29.0501C101.809 29.1645 102.079 28.9845 102.206 28.7029C102.319 28.3923 102.369 28.0615 102.354 27.7283C102.42 26.7805 102.327 25.8807 102.336 24.9429C102.345 24.0051 102.344 23.0666 102.377 22.1158C102.311 20.2659 102.323 18.3714 102.371 16.4688C102.361 17.3834 103.808 20.0317 104.171 21.0435C104.623 22.6355 104.954 24.254 105.16 25.8857C105.266 27.3471 105.177 28.8094 104.895 30.2353C104.576 31.6171 103.723 32.6315 102.494 32.4471C101.661 32.3333 100.925 31.7538 100.195 31.1217C99.464 30.4896 98.8915 29.7437 98.2335 29.117C97.3694 28.2345 96.1634 27.6406 95.1414 27.0147C94.1069 26.4239 93.1237 25.7482 92.2031 24.9953C92.5952 24.947 93.0022 24.8949 93.4073 24.8745Z" fill="url(#paint11_linear_5046_332)"/>
<path d="M69 7C69.5523 7 70 6.55228 70 6C70 5.44772 69.5523 5 69 5C68.4477 5 68 5.44772 68 6C68 6.55228 68.4477 7 69 7Z" fill="url(#paint12_linear_5046_332)"/>
<path d="M39 7C39.5523 7 40 6.55228 40 6C40 5.44772 39.5523 5 39 5C38.4477 5 38 5.44772 38 6C38 6.55228 38.4477 7 39 7Z" fill="url(#paint13_linear_5046_332)"/>
<path d="M46.9122 3C46.4084 3 46 3.40841 46 3.9122V18.0878C46 18.5916 46.4084 19 46.9122 19H61.0877C61.5915 19 61.9999 18.5916 61.9999 18.0878V12.0947C61.9999 11.8064 61.6484 11.6651 61.4489 11.8733L58.289 15.1707C56.9388 16.5797 55.5295 17.2802 54.061 17.2724C52.6041 17.2762 51.2205 16.623 49.9102 15.3127C48.5188 13.9212 47.7857 12.4114 47.711 10.7833C47.6523 9.27989 48.2391 7.83045 49.4715 6.43494C49.6276 6.25816 49.8958 6.25582 50.0624 6.42244L52.8369 9.19695C53.0021 9.36215 53.0038 9.63084 52.8595 9.81521C52.189 10.672 52.1636 11.4103 52.7834 12.0301C53.4096 12.6562 54.1084 12.5668 54.8799 11.7616L61.9109 4.42462C61.968 4.36504 61.9999 4.28572 61.9999 4.20321V3.9122C61.9999 3.40841 61.5915 3 61.0877 3H46.9122Z" fill="url(#paint14_linear_5046_332)"/>
</g>
<path d="M65.3804 107.995C65.2664 107.994 65.1525 107.984 65.0397 107.967C56.5732 106.677 48.2437 104.574 40.1616 101.686C31.8939 98.6851 23.7106 94.6977 17.0308 88.8047C16.1462 88.0264 15.2866 87.2033 14.4677 86.361C10.2102 81.9162 6.68728 76.791 4.03692 71.1865C1.03055 64.2595 -0.3298 56.7007 0.0675236 49.1306C0.464847 41.5605 2.60851 34.1949 6.32259 27.6382C10.0367 21.0815 15.2153 15.5206 21.4334 11.4121C27.6515 7.30351 30.7318 6.76432 38.0933 6.00292C38.1708 5.99213 38.2494 6.01147 38.3136 6.05712C38.3778 6.10277 38.423 6.17142 38.4403 6.24953C38.4391 6.28795 38.4304 6.32574 38.4148 6.36068C38.3991 6.39561 38.3768 6.42699 38.3491 6.45295C38.3215 6.47891 38.289 6.49894 38.2537 6.51186C38.2183 6.52478 38.1808 6.53032 38.1434 6.52817C26.4523 7.7582 19.6638 11.5254 11.9909 20.6467C4.31808 29.768 0.342549 41.5519 0.879872 53.5811C1.12343 59.5267 2.47072 65.3702 4.84962 70.7989C7.25464 76.2106 10.6174 81.1189 14.7677 85.2753C18.3084 88.933 22.3357 92.0599 26.7301 94.5632C36.3419 100.069 47.3603 103.14 58.088 105.452C60.3802 105.946 62.685 106.388 65.0022 106.778C65.265 106.802 65.5187 106.889 65.743 107.031C65.8531 107.106 65.9347 107.217 65.974 107.346C66.0133 107.475 66.0079 107.614 65.9587 107.739C65.8931 107.831 65.805 107.902 65.7034 107.947C65.6018 107.992 65.4903 108.009 65.3804 107.995Z" fill="url(#paint15_linear_5046_332)"/>
<path d="M68.8591 6.52519C80.5473 7.75883 88.3322 11.5265 96.0031 20.646C103.674 29.7655 107.65 41.5459 107.115 53.5725C106.871 59.5176 105.523 65.3605 103.143 70.7884C100.738 76.1985 97.3766 81.1059 93.229 85.263C89.6875 88.9204 85.6596 92.0469 81.2646 94.5499C71.6569 100.055 60.6365 103.126 49.9129 105.438C47.6209 105.931 45.3164 106.373 42.9994 106.764C42.7356 106.788 42.4809 106.874 42.2555 107.017C42.1463 107.092 42.0655 107.203 42.0263 107.332C41.9871 107.46 41.9919 107.599 42.0399 107.724C42.1036 107.819 42.1909 107.894 42.2926 107.942C42.3943 107.989 42.5067 108.008 42.6181 107.997C42.7321 107.995 42.846 107.986 42.9587 107.968C51.4281 106.673 59.7598 104.565 67.8438 101.672C76.1107 98.6713 84.2901 94.6844 90.9724 88.792C91.8558 88.0149 92.7101 87.2005 93.5353 86.3486C97.792 81.9048 101.314 76.7801 103.962 71.1759C106.969 64.2499 108.329 56.6922 107.933 49.1229C107.536 41.5536 105.393 34.1887 101.679 27.6326C97.9658 21.0765 92.7878 15.5162 86.5703 11.408C80.3528 7.29992 76.2731 6.7611 68.9123 6" fill="url(#paint16_linear_5046_332)"/>
<path d="M40.4318 50.7017V68.1562H37.2699V53.7784H37.1676L33.0852 56.3864V53.4886L37.4233 50.7017H40.4318ZM50.9233 50.4631C51.7585 50.4687 52.571 50.6165 53.3608 50.9062C54.1563 51.1903 54.8722 51.6562 55.5085 52.304C56.1449 52.946 56.6506 53.8068 57.0256 54.8864C57.4006 55.9659 57.5881 57.3011 57.5881 58.892C57.5938 60.392 57.4347 61.733 57.1108 62.9148C56.7926 64.0909 56.3352 65.0852 55.7386 65.8977C55.142 66.7102 54.4233 67.3295 53.5824 67.7557C52.7415 68.1818 51.7955 68.3949 50.7443 68.3949C49.642 68.3949 48.6648 68.179 47.8125 67.7472C46.9659 67.3153 46.2813 66.7244 45.7585 65.9744C45.2358 65.2244 44.9148 64.3665 44.7955 63.4006H47.9062C48.0653 64.0937 48.3892 64.6449 48.8778 65.054C49.3722 65.4574 49.9943 65.6591 50.7443 65.6591C51.9545 65.6591 52.8864 65.1335 53.5398 64.0824C54.1932 63.0312 54.5199 61.571 54.5199 59.7017H54.4006C54.1222 60.2017 53.7614 60.6335 53.3182 60.9972C52.875 61.3551 52.3722 61.6307 51.8097 61.8239C51.2528 62.017 50.6619 62.1136 50.0369 62.1136C49.0142 62.1136 48.0938 61.8693 47.2756 61.3807C46.4631 60.892 45.8182 60.2216 45.3409 59.3693C44.8693 58.517 44.6307 57.5426 44.625 56.446C44.625 55.3097 44.8864 54.2898 45.4091 53.3864C45.9375 52.4773 46.6733 51.7614 47.6165 51.2386C48.5597 50.7102 49.6619 50.4517 50.9233 50.4631ZM50.9318 53.0199C50.3182 53.0199 49.7642 53.1705 49.2699 53.4716C48.7813 53.767 48.3949 54.1705 48.1108 54.6818C47.8324 55.1875 47.6932 55.7528 47.6932 56.3778C47.6989 56.9972 47.8381 57.5597 48.1108 58.0653C48.3892 58.571 48.767 58.9716 49.2443 59.267C49.7273 59.5625 50.2784 59.7102 50.8977 59.7102C51.358 59.7102 51.7869 59.6222 52.1847 59.446C52.5824 59.2699 52.929 59.0256 53.2244 58.7131C53.5256 58.3949 53.7585 58.0341 53.9233 57.6307C54.0938 57.2273 54.1761 56.8011 54.1705 56.3523C54.1705 55.7557 54.0284 55.2045 53.7443 54.6989C53.4659 54.1932 53.0824 53.7869 52.5938 53.4801C52.1108 53.1733 51.5568 53.0199 50.9318 53.0199ZM60.4261 68.1562V65.8722L66.4858 59.9318C67.0653 59.3466 67.5483 58.8267 67.9347 58.3722C68.321 57.9176 68.6108 57.4773 68.804 57.0511C68.9972 56.625 69.0938 56.1705 69.0938 55.6875C69.0938 55.1364 68.9688 54.6648 68.7188 54.2727C68.4688 53.875 68.125 53.5682 67.6875 53.3523C67.25 53.1364 66.7528 53.0284 66.196 53.0284C65.6222 53.0284 65.1193 53.1477 64.6875 53.3864C64.2557 53.6193 63.9205 53.9517 63.6818 54.3835C63.4489 54.8153 63.3324 55.3295 63.3324 55.9261H60.3239C60.3239 54.8182 60.5767 53.8551 61.0824 53.0369C61.5881 52.2187 62.2841 51.5852 63.1705 51.1364C64.0625 50.6875 65.0852 50.4631 66.2386 50.4631C67.4091 50.4631 68.4375 50.6818 69.3239 51.1193C70.2102 51.5568 70.8977 52.1562 71.3864 52.9176C71.8807 53.679 72.1278 54.5483 72.1278 55.5256C72.1278 56.179 72.0028 56.821 71.7528 57.4517C71.5028 58.0824 71.0625 58.7812 70.4318 59.5483C69.8068 60.3153 68.929 61.2443 67.7983 62.3352L64.7898 65.3949V65.5142H72.392V68.1562H60.4261Z" fill="#60A6A6"/>
</g>
<defs>
<linearGradient id="paint0_linear_5046_332" x1="53.9964" y1="71.0031" x2="53.9964" y2="94.0031" gradientUnits="userSpaceOnUse">
<stop stop-color="#6CB7B7"/>
<stop offset="1" stop-color="#488282"/>
</linearGradient>
<linearGradient id="paint1_linear_5046_332" x1="54.0013" y1="22.9994" x2="54.0013" y2="45.9994" gradientUnits="userSpaceOnUse">
<stop stop-color="#6CB7B7"/>
<stop offset="1" stop-color="#488282"/>
</linearGradient>
<linearGradient id="paint2_linear_5046_332" x1="14.5" y1="53" x2="14.5" y2="62" gradientUnits="userSpaceOnUse">
<stop stop-color="#6CB7B7"/>
<stop offset="1" stop-color="#488282"/>
</linearGradient>
<linearGradient id="paint3_linear_5046_332" x1="93.5" y1="53" x2="93.5" y2="62" gradientUnits="userSpaceOnUse">
<stop stop-color="#6CB7B7"/>
<stop offset="1" stop-color="#488282"/>
</linearGradient>
<linearGradient id="paint4_linear_5046_332" x1="98.5" y1="74" x2="98.5" y2="88" gradientUnits="userSpaceOnUse">
<stop stop-color="#6CB7B7"/>
<stop offset="1" stop-color="#488282"/>
</linearGradient>
<linearGradient id="paint5_linear_5046_332" x1="104" y1="66" x2="104" y2="74" gradientUnits="userSpaceOnUse">
<stop stop-color="#6CB7B7"/>
<stop offset="1" stop-color="#488282"/>
</linearGradient>
<linearGradient id="paint6_linear_5046_332" x1="4" y1="66" x2="4" y2="74" gradientUnits="userSpaceOnUse">
<stop stop-color="#6CB7B7"/>
<stop offset="1" stop-color="#488282"/>
</linearGradient>
<linearGradient id="paint7_linear_5046_332" x1="14.7656" y1="12" x2="14.7656" y2="21" gradientUnits="userSpaceOnUse">
<stop stop-color="#6CB7B7"/>
<stop offset="1" stop-color="#488282"/>
</linearGradient>
<linearGradient id="paint8_linear_5046_332" x1="93" y1="12" x2="93" y2="21" gradientUnits="userSpaceOnUse">
<stop stop-color="#6CB7B7"/>
<stop offset="1" stop-color="#488282"/>
</linearGradient>
<linearGradient id="paint9_linear_5046_332" x1="9.5" y1="74" x2="9.5" y2="88" gradientUnits="userSpaceOnUse">
<stop stop-color="#6CB7B7"/>
<stop offset="1" stop-color="#488282"/>
</linearGradient>
<linearGradient id="paint10_linear_5046_332" x1="9.05469" y1="16.4688" x2="9.05469" y2="32.4688" gradientUnits="userSpaceOnUse">
<stop stop-color="#6CB7B7"/>
<stop offset="1" stop-color="#488282"/>
</linearGradient>
<linearGradient id="paint11_linear_5046_332" x1="98.7031" y1="16.4688" x2="98.7031" y2="32.4688" gradientUnits="userSpaceOnUse">
<stop stop-color="#6CB7B7"/>
<stop offset="1" stop-color="#488282"/>
</linearGradient>
<linearGradient id="paint12_linear_5046_332" x1="69" y1="5" x2="69" y2="7" gradientUnits="userSpaceOnUse">
<stop stop-color="#6CB7B7"/>
<stop offset="1" stop-color="#488282"/>
</linearGradient>
<linearGradient id="paint13_linear_5046_332" x1="39" y1="5" x2="39" y2="7" gradientUnits="userSpaceOnUse">
<stop stop-color="#6CB7B7"/>
<stop offset="1" stop-color="#488282"/>
</linearGradient>
<linearGradient id="paint14_linear_5046_332" x1="53.9999" y1="3" x2="53.9999" y2="19" gradientUnits="userSpaceOnUse">
<stop stop-color="#6CB7B7"/>
<stop offset="1" stop-color="#488282"/>
</linearGradient>
<linearGradient id="paint15_linear_5046_332" x1="33" y1="6" x2="33" y2="108" gradientUnits="userSpaceOnUse">
<stop stop-color="#6CB7B7"/>
<stop offset="1" stop-color="#488282"/>
</linearGradient>
<linearGradient id="paint16_linear_5046_332" x1="75" y1="6" x2="75" y2="108" gradientUnits="userSpaceOnUse">
<stop stop-color="#6CB7B7"/>
<stop offset="1" stop-color="#488282"/>
</linearGradient>
<clipPath id="clip0_5046_332">
<rect width="108" height="108" fill="white"/>
</clipPath>
</defs>
</svg>
